<?xml version="1.0" encoding="utf-8"?>
<!-- Generator: Adobe Illustrator 23.0.3, SVG Export Plug-In . SVG Version: 6.00 Build 0)  -->
<svg version="1.1" id="Слой_1" xmlns="http://www.w3.org/2000/svg" xmlns:xlink="http://www.w3.org/1999/xlink" x="0px" y="0px"
	 width="282.4px" height="282.4px" viewBox="0 0 282.4 282.4" style="enable-background:new 0 0 282.4 282.4;" xml:space="preserve"
	>
<style type="text/css">
	.st0{fill-rule:evenodd;clip-rule:evenodd;fill:#F9FAFF;}
</style>
<path class="st0" d="M141.6,282.4C64,282.4,0.8,219.2,0.8,141.6S64,0.8,141.6,0.8S282.4,64,282.4,141.6c0,45.1-21.4,85.4-54.5,111.2
	c1.6-1.6,2.6-3.8,2.8-6.3c0.3-2.6,0.3-4.6,0.3-6.9v-3.3c-0.1-4.2-0.4-8.2-1.1-12.2c20.2-21.6,32.6-50.6,32.6-82.5
	c0-66.7-54.3-120.9-120.9-120.9S20.7,74.9,20.7,141.6c0,32.1,12.6,61.4,33.1,83c-0.7,4.9-1,9.9-0.9,15c0,2,0,4.3,0.3,6.9
	c0.3,5.6,4.9,9.5,10.5,9.2c5.6-0.3,9.5-4.9,9.2-10.5c-0.2-1.7-0.3-3.1-0.3-4.3c19.6,13.7,43.4,21.7,69,21.7c25.9,0,50-8.2,69.7-22.2
	c0,0.6-0.1,1.2-0.1,1.8c-0.1,1-0.2,2-0.2,3c-0.3,5.2,3.6,10.2,9.2,10.5h0.7c1.8,0,3.5-0.5,4.9-1.3
	C202.3,272,173.2,282.4,141.6,282.4z M211.4,240.4c6.8-4.8,13-10.2,18.6-16.3c-6.8-43.5-44.7-76.2-89.8-75.3
	c-44.4,0.9-80.4,33.6-86.4,75.8c5.7,6,12,11.5,18.8,16.2c0-0.4,0-0.8,0-1.3v-3c0.7-38.3,32.5-68.8,70.9-67.8
	c38.4,0.7,68.9,32.4,67.9,70.8C211.4,239.8,211.4,240.1,211.4,240.4z M225.8,254.4c0.7-0.5,1.4-1.1,2.1-1.6
	C227.3,253.4,226.6,253.9,225.8,254.4z M101.6,98.4c0,21.8,17.6,39.4,39.4,39.4s39.4-17.6,39.4-39.4S162.8,59,141,59
	S101.6,76.6,101.6,98.4z M141.6,78.9c-11.3,0-20.2,8.9-20.2,20.2s8.9,20.2,20.2,20.2s20.2-8.9,20.2-20.2S152.9,78.9,141.6,78.9z"/>
</svg>
