<?xml version="1.0" encoding="utf-8"?><svg xmlns="http://www.w3.org/2000/svg" xmlns:xlink="http://www.w3.org/1999/xlink"><symbol viewBox="0 0 282.4 282.4" id="Shape" xmlns="http://www.w3.org/2000/svg"><path d="M141.6 282.4C64 282.4.8 219.2.8 141.6S64 .8 141.6.8 282.4 64 282.4 141.6c0 45.1-21.4 85.4-54.5 111.2 1.6-1.6 2.6-3.8 2.8-6.3.3-2.6.3-4.6.3-6.9v-3.3c-.1-4.2-.4-8.2-1.1-12.2 20.2-21.6 32.6-50.6 32.6-82.5 0-66.7-54.3-120.9-120.9-120.9S20.7 74.9 20.7 141.6c0 32.1 12.6 61.4 33.1 83-.7 4.9-1 9.9-.9 15 0 2 0 4.3.3 6.9.3 5.6 4.9 9.5 10.5 9.2 5.6-.3 9.5-4.9 9.2-10.5-.2-1.7-.3-3.1-.3-4.3 19.6 13.7 43.4 21.7 69 21.7 25.9 0 50-8.2 69.7-22.2 0 .6-.1 1.2-.1 1.8-.1 1-.2 2-.2 3-.3 5.2 3.6 10.2 9.2 10.5h.7c1.8 0 3.5-.5 4.9-1.3-23.5 17.6-52.6 28-84.2 28zm69.8-42c6.8-4.8 13-10.2 18.6-16.3-6.8-43.5-44.7-76.2-89.8-75.3-44.4.9-80.4 33.6-86.4 75.8 5.7 6 12 11.5 18.8 16.2v-4.3c.7-38.3 32.5-68.8 70.9-67.8 38.4.7 68.9 32.4 67.9 70.8v.9zm14.4 14c.7-.5 1.4-1.1 2.1-1.6-.6.6-1.3 1.1-2.1 1.6zm-124.2-156c0 21.8 17.6 39.4 39.4 39.4s39.4-17.6 39.4-39.4S162.8 59 141 59s-39.4 17.6-39.4 39.4zm40-19.5c-11.3 0-20.2 8.9-20.2 20.2s8.9 20.2 20.2 20.2 20.2-8.9 20.2-20.2-8.9-20.2-20.2-20.2z" fill-rule="evenodd" clip-rule="evenodd"/></symbol><symbol viewBox="0 0 512 512" id="gears" xmlns="http://www.w3.org/2000/svg"><g stroke-width="3"><path data-start="0" data-duration="500" d="M262.785 317.207a8.084 8.084 0 00-10.769-3.837 128.725 128.725 0 01-20.448 7.648 8.08 8.08 0 00-5.748 6.2l-8.552 42.758a9.088 9.088 0 01-8.888 7.287h-23.329a9.088 9.088 0 01-8.888-7.287l-8.552-42.758a8.084 8.084 0 00-5.748-6.2 128.448 128.448 0 01-28.391-11.764 8.086 8.086 0 00-8.452.317l-36.286 24.19c-3.582 2.388-8.392 1.911-11.438-1.133L60.8 316.131c-3.045-3.045-3.52-7.855-1.133-11.438l24.19-36.286a8.081 8.081 0 00.317-8.452 128.411 128.411 0 01-11.764-28.391 8.08 8.08 0 00-6.2-5.748l-42.758-8.552a9.088 9.088 0 01-7.287-8.888v-23.329a9.088 9.088 0 017.287-8.888l42.758-8.552a8.084 8.084 0 006.2-5.748 128.448 128.448 0 0111.764-28.391 8.086 8.086 0 00-.317-8.452L59.669 88.734a9.09 9.09 0 011.133-11.438L77.298 60.8c3.045-3.045 7.856-3.52 11.438-1.133l36.286 24.19a8.083 8.083 0 008.452.317 128.448 128.448 0 0128.391-11.764 8.08 8.08 0 005.748-6.2l8.552-42.758a9.088 9.088 0 018.888-7.287h23.329a9.088 9.088 0 018.888 7.287l8.552 42.758a8.084 8.084 0 005.748 6.2 128.448 128.448 0 0128.391 11.764 8.086 8.086 0 008.452-.317l36.286-24.19c3.582-2.388 8.391-1.911 11.438 1.133l16.496 16.496c3.045 3.045 3.52 7.855 1.133 11.438l-24.19 36.286a8.081 8.081 0 00-.317 8.452 128.448 128.448 0 0111.764 28.391 8.08 8.08 0 006.2 5.748l42.758 8.552a9.088 9.088 0 017.287 8.888v23.329a9.088 9.088 0 01-7.287 8.888l-42.758 8.552a8.084 8.084 0 00-6.2 5.75 128.672 128.672 0 01-7.88 20.934 8.083 8.083 0 003.791 10.785 8.082 8.082 0 0010.785-3.791 144.997 144.997 0 007.442-18.777l37.991-7.598c11.749-2.352 20.279-12.758 20.279-24.744V185.05c0-11.986-8.53-22.391-20.284-24.743l-37.99-7.598a144.66 144.66 0 00-9.434-22.769l21.492-32.239c6.648-9.973 5.323-23.363-3.153-31.839l-16.496-16.496c-8.477-8.476-21.867-9.8-31.839-3.153l-32.239 21.492a144.755 144.755 0 00-22.769-9.434l-7.598-37.99C230.772 8.53 220.366 0 208.38 0h-23.329c-11.986 0-22.391 8.53-24.743 20.284l-7.598 37.99a144.66 144.66 0 00-22.769 9.434L97.704 46.216c-9.972-6.648-23.363-5.324-31.839 3.153L49.369 65.865c-8.475 8.476-9.801 21.865-3.153 31.839l21.492 32.239a144.716 144.716 0 00-9.434 22.769l-37.991 7.598C8.53 162.66 0 173.066 0 185.052v23.329c0 11.986 8.53 22.391 20.284 24.743l37.99 7.598a144.644 144.644 0 009.434 22.769L46.216 295.73c-6.648 9.973-5.323 23.363 3.153 31.839l16.496 16.496c8.476 8.476 21.866 9.8 31.839 3.153l32.239-21.492a144.716 144.716 0 0022.769 9.434l7.598 37.992c2.35 11.75 12.756 20.281 24.742 20.281h23.329c11.986 0 22.391-8.53 24.743-20.284l7.598-37.99a144.831 144.831 0 0018.228-7.18 8.085 8.085 0 003.835-10.772z"/><path data-start="500" data-duration="100" d="M266.739 241.636a8.083 8.083 0 0010.882-3.504c6.52-12.715 9.967-27.036 9.967-41.415 0-50.107-40.765-90.873-90.873-90.873-23.838 0-46.364 9.162-63.43 25.801a8.084 8.084 0 0011.285 11.577c14.029-13.676 32.547-21.209 52.143-21.209 41.192 0 74.705 33.512 74.705 74.705 0 11.994-2.754 23.446-8.185 34.038a8.084 8.084 0 003.506 10.88zm-145.696-79.511a8.083 8.083 0 00-10.274 5.014 90.728 90.728 0 00-4.924 29.577c0 50.108 40.766 90.873 90.873 90.873 19.271 0 37.683-5.956 53.247-17.227a8.086 8.086 0 00-9.483-13.097c-12.788 9.259-27.921 14.154-43.765 14.154-41.193 0-74.705-33.513-74.705-74.705 0-8.334 1.36-16.517 4.044-24.318a8.08 8.08 0 00-5.013-10.271z"/><path data-start="0" data-duration="500" d="M496.442 353.316l-23.377-4.675a97.791 97.791 0 00-5.127-12.373l13.226-19.838c5.099-7.65 4.083-17.92-2.418-24.42l-10.84-10.84c-6.501-6.5-16.771-7.517-24.42-2.418l-19.838 13.226a97.639 97.639 0 00-12.373-5.126l-4.675-23.377c-1.803-9.015-9.784-15.558-18.977-15.558h-15.331c-9.192 0-17.174 6.543-18.977 15.558l-4.675 23.377a97.933 97.933 0 00-12.373 5.126l-19.838-13.226c-7.65-5.098-17.92-4.083-24.42 2.418l-10.84 10.84c-6.501 6.501-7.517 16.771-2.418 24.42l13.226 19.838a97.706 97.706 0 00-6.605 17.177 8.086 8.086 0 0015.571 4.357 81.578 81.578 0 017.476-18.043 8.086 8.086 0 00-.317-8.452l-15.897-23.845a3.194 3.194 0 01.398-4.019l10.84-10.84a3.198 3.198 0 014.019-.398l23.845 15.897a8.083 8.083 0 008.452.317 81.598 81.598 0 0118.043-7.476 8.08 8.08 0 005.748-6.2l5.619-28.097a3.193 3.193 0 013.123-2.56h15.331a3.195 3.195 0 013.123 2.56l5.619 28.099a8.084 8.084 0 005.748 6.2 81.578 81.578 0 0118.043 7.476 8.086 8.086 0 008.452-.317l23.845-15.897a3.193 3.193 0 014.019.398l10.84 10.84a3.196 3.196 0 01.398 4.019l-15.897 23.845a8.081 8.081 0 00-.317 8.452 81.598 81.598 0 017.476 18.043 8.08 8.08 0 006.2 5.748l28.097 5.619a3.193 3.193 0 012.56 3.123v15.331a3.195 3.195 0 01-2.56 3.123l-28.099 5.619a8.084 8.084 0 00-6.2 5.748 81.578 81.578 0 01-7.476 18.043 8.086 8.086 0 00.317 8.452l15.897 23.845a3.194 3.194 0 01-.398 4.019l-10.84 10.84a3.195 3.195 0 01-4.019.398l-23.845-15.897a8.086 8.086 0 00-8.452-.317 81.598 81.598 0 01-18.043 7.476 8.08 8.08 0 00-5.748 6.2l-5.619 28.097a3.193 3.193 0 01-3.123 2.56H372.29a3.195 3.195 0 01-3.123-2.56l-5.619-28.099a8.084 8.084 0 00-5.748-6.2 81.578 81.578 0 01-18.043-7.476 8.085 8.085 0 00-8.452.317L307.46 467.71a3.193 3.193 0 01-4.019-.398l-10.84-10.84a3.196 3.196 0 01-.398-4.019l15.897-23.845a8.081 8.081 0 00.317-8.452 81.598 81.598 0 01-7.476-18.043 8.08 8.08 0 00-6.2-5.748l-28.097-5.619a3.193 3.193 0 01-2.56-3.123v-15.331a3.195 3.195 0 012.56-3.123l1.72-.344a8.083 8.083 0 006.341-9.513c-.876-4.378-5.13-7.213-9.514-6.341l-1.72.344c-9.013 1.804-15.556 9.785-15.556 18.978v15.331c0 9.192 6.543 17.174 15.558 18.977l23.377 4.675a97.933 97.933 0 005.126 12.373l-13.226 19.838c-5.1 7.65-4.083 17.92 2.418 24.42l10.84 10.84c6.501 6.501 16.771 7.517 24.42 2.418l19.838-13.226a97.639 97.639 0 0012.373 5.126l4.675 23.377C355.119 505.457 363.1 512 372.293 512h15.331c9.192 0 17.174-6.543 18.977-15.558l4.675-23.377a97.791 97.791 0 0012.373-5.127l19.838 13.226c7.65 5.099 17.92 4.083 24.42-2.418l10.84-10.84c6.501-6.501 7.517-16.771 2.418-24.42l-13.226-19.838a97.639 97.639 0 005.126-12.373l23.377-4.675c9.014-1.803 15.557-9.784 15.557-18.977v-15.331c.001-9.192-6.542-17.173-15.557-18.976z"/><path data-start="500" data-duration="100" d="M379.958 350.855c16.048 0 29.103 13.055 29.103 29.103a8.084 8.084 0 0016.168 0c0-24.963-20.309-45.272-45.272-45.272s-45.272 20.309-45.272 45.272 20.309 45.272 45.272 45.272c10.111 0 19.675-3.261 27.659-9.429a8.086 8.086 0 00-9.886-12.796c-5.128 3.961-11.274 6.056-17.773 6.056-16.048 0-29.103-13.055-29.103-29.103.001-16.049 13.056-29.103 29.104-29.103z"/><path data-start="600" data-duration="100" d="M245.969 196.716c0-27.158-22.096-49.253-49.253-49.253-27.158 0-49.253 22.096-49.253 49.253 0 27.158 22.095 49.253 49.253 49.253s49.253-22.096 49.253-49.253zm-82.338 0c0-18.242 14.843-33.085 33.085-33.085s33.085 14.843 33.085 33.085-14.842 33.085-33.085 33.085c-18.244 0-33.085-14.843-33.085-33.085z"/></g></symbol><symbol id="user" viewBox="0 0 301.1 295.9" xml:space="preserve" xmlns="http://www.w3.org/2000/svg"><style>.cst1{fill-rule:evenodd;clip-rule:evenodd;fill:none;stroke:#f9faff;stroke-width:20}</style><circle class="cst1" cx="149.7" cy="147" r="130.5"/><circle class="cst1" cx="149.7" cy="104.1" r="29"/><g fill-rule="evenodd" clip-rule="evenodd"><path d="M-46.5 259.6c.7-.5 1.4-1.1 2.1-1.6-.6.6-1.3 1.1-2.1 1.6z"/><path d="M72.7 251.7c-.3-3-.5-6-.5-9.1 0-43.4 35.1-78.5 78.5-78.5s78.5 35.1 78.5 78.5c0 2.7-.1 5.4-.4 8" stroke-width="20" stroke-linecap="round"/></g></symbol><symbol viewBox="0 0 11 8" id="verification-mark" xmlns="http://www.w3.org/2000/svg"><path d="M10.839.16a.554.554 0 00-.778 0l-6.59 6.525L.94 4.177a.554.554 0 00-.778 0 .54.54 0 000 .77l2.922 2.894a.554.554 0 00.778 0L10.839.93a.54.54 0 000-.77z"/></symbol></svg>