<svg xmlns="http://www.w3.org/2000/svg" width="282.4" height="282.4"><path d="M141.6 282.4C64 282.4.8 219.2.8 141.6S64 .8 141.6.8 282.4 64 282.4 141.6c0 45.1-21.4 85.4-54.5 111.2 1.6-1.6 2.6-3.8 2.8-6.3.3-2.6.3-4.6.3-6.9v-3.3c-.1-4.2-.4-8.2-1.1-12.2 20.2-21.6 32.6-50.6 32.6-82.5 0-66.7-54.3-120.9-120.9-120.9S20.7 74.9 20.7 141.6c0 32.1 12.6 61.4 33.1 83-.7 4.9-1 9.9-.9 15 0 2 0 4.3.3 6.9.3 5.6 4.9 9.5 10.5 9.2 5.6-.3 9.5-4.9 9.2-10.5-.2-1.7-.3-3.1-.3-4.3 19.6 13.7 43.4 21.7 69 21.7 25.9 0 50-8.2 69.7-22.2 0 .6-.1 1.2-.1 1.8-.1 1-.2 2-.2 3-.3 5.2 3.6 10.2 9.2 10.5h.7c1.8 0 3.5-.5 4.9-1.3-23.5 17.6-52.6 28-84.2 28zm69.8-42c6.8-4.8 13-10.2 18.6-16.3-6.8-43.5-44.7-76.2-89.8-75.3-44.4.9-80.4 33.6-86.4 75.8 5.7 6 12 11.5 18.8 16.2v-4.3c.7-38.3 32.5-68.8 70.9-67.8 38.4.7 68.9 32.4 67.9 70.8v.9zm14.4 14c.7-.5 1.4-1.1 2.1-1.6-.6.6-1.3 1.1-2.1 1.6zm-124.2-156c0 21.8 17.6 39.4 39.4 39.4s39.4-17.6 39.4-39.4S162.8 59 141 59s-39.4 17.6-39.4 39.4zm40-19.5c-11.3 0-20.2 8.9-20.2 20.2s8.9 20.2 20.2 20.2 20.2-8.9 20.2-20.2-8.9-20.2-20.2-20.2z" fill-rule="evenodd" clip-rule="evenodd" fill="#f9faff"/></svg>